# xmcd
# 
# Track frame offsets:
#     150
#     15910
#     75491
#     129349
#     164900
#     218121
#     289857
# 
# Disc length: 4388
# 
# Revision: 0
# Processed by: cddbd v1.5.2PL0 Copyright (c) Steve Scherf et al.
# Submitted via: fre:ac v1.0.17
# 
DISCID=58112207
DTITLE=Action - Action
DYEAR=1972
DGENRE=Progressive Hard Rock
TTITLE0=Miscarriage Of Human Thinking (Part I)
TTITLE1=Miscarriage Of Human Thinking (Part II)
TTITLE2=Hell Track
TTITLE3=You Are The Lady (Live-Mitschitt 1972, unbekannter Herkunft)
TTITLE4=Hell Track (Live Festhalle Zweibrucken 22. 11. 2008)
TTITLE5=Miscarriage Of Human Thinking (Live Festhalle Zweibrucken 22. 11. 2008)
TTITLE6=You Are The Lady (Live Festhalle Zweibrucken 22. 11. 2008)
EXTD=
EXTT0=
EXTT1=
EXTT2=
EXTT3=
EXTT4=
EXTT5=
EXTT6=
PLAYORDER=
